<svg width="80" height="80" viewBox="0 0 80 80" fill="none" xmlns="http://www.w3.org/2000/svg">
<path fill-rule="evenodd" clip-rule="evenodd" d="M40.03 15.5084C43.7938 15.5084 47.473 16.6244 50.6025 18.7152C53.732 20.8061 56.1711 23.7779 57.6114 27.2548C59.0518 30.7317 59.4286 34.5576 58.6943 38.2487C57.9601 41.9398 56.1476 45.3303 53.4862 47.9914C50.8248 50.6526 47.434 52.4648 43.7426 53.199C40.0511 53.9332 36.2248 53.5564 32.7475 52.1162C29.2703 50.676 26.2982 48.2371 24.2071 45.108C22.1161 41.9788 21 38.2999 21 34.5365C21.0003 29.49 23.0053 24.6503 26.5741 21.0819C30.1428 17.5135 34.983 15.5087 40.03 15.5084Z" fill="#746A4B"/>
<path d="M28.228 33.2557C26.576 41.3919 27.194 50.238 34.596 55.9964H45.467C52.867 50.237 53.487 41.3919 51.834 33.2557C50.3063 26.5618 47.7618 20.1416 44.289 14.2186C41.326 9.13206 43.758 5.90038 45.374 3.75259C45.702 3.3747 45.9775 2.95428 46.193 2.50272C46.208 2.44072 45.951 2.54571 45.275 2.38273C43.5339 2.19174 41.782 2.11758 40.031 2.16075C38.28 2.11702 36.528 2.19118 34.787 2.38273C34.4839 2.44203 34.1772 2.48144 33.869 2.50072C34.0839 2.95291 34.3595 3.37374 34.688 3.75159C36.305 5.89938 38.737 9.13106 35.773 14.2176C32.3005 20.139 29.756 26.5575 28.228 33.2497M33.508 57.8612C25.069 51.4719 24.314 41.7368 26.123 32.8287C27.699 25.9077 30.3268 19.2693 33.915 13.1447C36.163 9.28404 34.247 6.7363 32.972 5.04546C32.4465 4.45251 32.0426 3.76219 31.783 3.01367L31.77 2.95267C31.492 1.7018 32.07 0.834883 34.283 0.300936C36.1897 0.0605361 38.1118 -0.0360604 40.033 0.0119646C41.9542 -0.0360226 43.8763 0.0605738 45.783 0.300936C48.032 0.843882 48.593 1.73079 48.283 3.01367C48.0232 3.7621 47.6193 4.45237 47.094 5.04546C45.82 6.7383 43.903 9.28504 46.151 13.1447C49.7392 19.2707 52.3661 25.911 53.94 32.8337C55.755 41.7738 54.99 51.5428 46.471 57.9312C46.2851 58.0703 46.0592 58.1454 45.827 58.1452H34.235C33.9649 58.1455 33.7046 58.0442 33.506 57.8612H33.508Z" fill="#D6CFCA"/>
<path d="M32.272 46.3104C32.1821 46.0442 32.2001 45.7533 32.322 45.5002C32.444 45.247 32.6602 45.0517 32.9244 44.956C33.1887 44.8603 33.4798 44.8719 33.7356 44.9882C33.9914 45.1046 34.1915 45.3164 34.293 45.5784C34.9698 47.4448 35.9467 49.1882 37.185 50.7399C37.3578 50.9625 37.436 51.2441 37.4028 51.5238C37.3696 51.8036 37.2275 52.059 37.0073 52.2349C36.7872 52.4107 36.5067 52.4928 36.2265 52.4634C35.9462 52.434 35.6888 52.2955 35.51 52.0778C34.1178 50.3483 33.0238 48.3987 32.273 46.3094M36.327 19.1951C36.3966 19.0705 36.4905 18.9611 36.603 18.8732C36.7155 18.7854 36.8443 18.7209 36.9821 18.6834C37.1198 18.646 37.2637 18.6364 37.4051 18.6553C37.5466 18.6741 37.6829 18.721 37.8061 18.7932C37.9292 18.8653 38.0367 18.9614 38.1223 19.0756C38.2079 19.1898 38.2698 19.32 38.3044 19.4585C38.339 19.5969 38.3457 19.7409 38.324 19.8819C38.3023 20.023 38.2526 20.1583 38.178 20.28C38.159 20.312 31.605 31.3839 33.394 42.1148C33.4211 42.2558 33.4198 42.4007 33.3901 42.5412C33.3603 42.6816 33.3028 42.8147 33.2208 42.9326C33.1389 43.0504 33.0342 43.1507 32.9128 43.2275C32.7915 43.3042 32.6561 43.356 32.5145 43.3796C32.3729 43.4032 32.2279 43.3983 32.0883 43.365C31.9486 43.3318 31.817 43.2709 31.7012 43.186C31.5854 43.1012 31.4878 42.994 31.4141 42.8708C31.3404 42.7476 31.292 42.6109 31.272 42.4688C29.355 30.9699 36.306 19.2281 36.325 19.1941L36.327 19.1951Z" fill="#D6CFCA"/>
<path d="M32.165 62.004C31.8793 62.004 31.6052 61.8905 31.4031 61.6884C31.201 61.4863 31.0875 61.2123 31.0875 60.9265C31.0875 60.6407 31.201 60.3667 31.4031 60.1646C31.6052 59.9625 31.8793 59.849 32.165 59.849H47.896C48.1818 59.849 48.4559 59.9625 48.6579 60.1646C48.86 60.3667 48.9735 60.6407 48.9735 60.9265C48.9735 61.2123 48.86 61.4863 48.6579 61.6884C48.4559 61.8905 48.1818 62.004 47.896 62.004H32.165Z" fill="#D6CFCA"/>
<path d="M33.581 78.3052C34.1138 78.3112 34.6413 78.1981 35.125 77.9743L34.975 79.6511C34.4275 79.8789 33.8409 79.9974 33.248 80.0001C31.389 80.0001 30.226 79.0711 30.226 77.1783V69.3271L32.3 69.0461V71.3059H35.138L34.988 72.8498H32.3V76.9314C32.3 77.9763 32.9 78.3092 33.578 78.3092L33.581 78.3052Z" fill="#D6CFCA"/>
<path d="M0 79.6522V66.9504H6.923V68.9802H2.187V72.2099H6.267V74.2587H2.187V77.6204H6.923V79.6522H0Z" fill="#D6CFCA"/>
<path d="M13.621 79.6539L11.95 76.7099H11.83L10.159 79.6539H8.00598L10.64 75.1929L8.07398 70.8699H10.348L11.932 73.6599H12.032L13.616 70.8699H15.769L13.237 75.1699L15.871 79.6469H13.621V79.6539Z" fill="#D6CFCA"/>
<path d="M21.541 79.724C21.1519 79.7679 20.7606 79.7906 20.369 79.792C19.6086 79.8466 18.8487 79.6788 18.182 79.309C17.7061 78.9798 17.3783 78.4772 17.269 77.909C17.1092 77.0375 17.0401 76.1517 17.063 75.266C17.038 74.3819 17.1162 73.4979 17.296 72.632C17.4138 72.0574 17.746 71.5493 18.225 71.211C18.8674 70.8515 19.6006 70.6868 20.335 70.737C20.736 70.7374 21.1366 70.7601 21.535 70.805C21.8705 70.8366 22.2023 70.8995 22.526 70.993V72.611C21.9858 72.5144 21.4378 72.4682 20.889 72.473C20.491 72.4469 20.0925 72.5154 19.726 72.673C19.5975 72.757 19.4891 72.8685 19.4087 72.9994C19.3283 73.1303 19.2779 73.2773 19.261 73.43C19.1705 74.0369 19.1334 74.6506 19.15 75.264C19.133 75.8837 19.1732 76.5036 19.27 77.116C19.288 77.2682 19.3399 77.4144 19.422 77.5439C19.504 77.6733 19.6141 77.7827 19.744 77.864C20.1114 78.0109 20.5074 78.0725 20.902 78.044C21.4662 78.0459 22.0298 78.0058 22.588 77.924V79.524C22.2439 79.6148 21.8931 79.6783 21.539 79.714L21.541 79.724Z" fill="#D6CFCA"/>
<path d="M24.723 68.0982V66.0034H26.84V68.0982H24.723ZM24.741 79.6531V70.284H26.823V79.6531H24.741Z" fill="#D6CFCA"/>
<path d="M42.67 75.934H37.865C37.846 76.4156 37.8833 76.8979 37.976 77.371C38.0099 77.5009 38.0768 77.6199 38.1701 77.7165C38.2635 77.813 38.3803 77.8838 38.509 77.922C38.9902 78.0427 39.4865 78.0922 39.982 78.069C40.7879 78.0661 41.593 78.02 42.394 77.931V79.531C41.9632 79.626 41.526 79.6895 41.086 79.721C40.547 79.766 40.023 79.789 39.52 79.789C38.6671 79.8439 37.8134 79.693 37.031 79.349C36.7765 79.2092 36.5544 79.0172 36.3793 78.7856C36.2042 78.554 36.0801 78.2879 36.015 78.005C35.8322 77.1073 35.754 76.1916 35.782 75.276C35.7527 74.3699 35.8309 73.4636 36.015 72.576C36.0786 72.2901 36.1991 72.0199 36.3694 71.7816C36.5397 71.5433 36.7562 71.3418 37.006 71.189C37.7381 70.829 38.5521 70.6686 39.366 70.724C40.1473 70.6639 40.9302 70.8185 41.63 71.171C41.8606 71.32 42.0572 71.5158 42.2071 71.7459C42.357 71.9759 42.4568 72.2348 42.5 72.506C42.6366 73.4203 42.6942 74.3447 42.672 75.269V75.924L42.67 75.934ZM38.37 72.593C38.2671 72.6529 38.1788 72.7351 38.1117 72.8336C38.0445 72.932 38.0002 73.0442 37.982 73.162C37.9033 73.6109 37.8662 74.0662 37.871 74.522H40.711C40.7255 74.0599 40.6883 73.5977 40.6 73.144C40.5795 73.0255 40.533 72.913 40.4638 72.8146C40.3947 72.7162 40.3046 72.6344 40.2 72.575C39.9229 72.4684 39.6265 72.4214 39.33 72.437C39.0016 72.4161 38.6726 72.4687 38.367 72.591L38.37 72.593Z" fill="#D6CFCA"/>
<path d="M50.8989 79.7081C50.4589 79.7617 50.0162 79.7894 49.5729 79.7911C48.607 79.8593 47.6404 79.6684 46.7729 79.2381C46.4575 79.0218 46.1894 78.7435 45.9851 78.4201C45.7809 78.0967 45.6447 77.7351 45.5849 77.3573C45.3465 76.0193 45.246 74.6603 45.2849 73.3017C45.2455 71.9465 45.3461 70.5908 45.5849 69.2561C45.6482 68.878 45.787 68.5166 45.9932 68.1934C46.1994 67.8702 46.4687 67.592 46.7849 67.3753C47.6477 66.9412 48.6113 66.7468 49.5749 66.8124C50.0238 66.8136 50.4721 66.8443 50.9169 66.9044C51.289 66.948 51.6569 67.0219 52.0169 67.1253V69.0061C51.3723 68.9135 50.7229 68.8584 50.0719 68.8412C49.4626 68.7984 48.8513 68.8896 48.2809 69.1081C48.0936 69.2327 47.9377 69.399 47.8256 69.594C47.7135 69.7891 47.6482 70.0075 47.6349 70.232C47.5122 71.2504 47.463 72.2763 47.4879 73.3017C47.4619 74.3272 47.5111 75.3531 47.6349 76.3714C47.6479 76.596 47.7131 76.8145 47.8252 77.0096C47.9373 77.2047 48.0934 77.371 48.2809 77.4953C48.851 77.7151 49.4626 77.8063 50.0719 77.7623C50.742 77.7618 51.4109 77.7067 52.0719 77.5973V79.4971C51.6868 79.597 51.2947 79.6675 50.8989 79.7081Z" fill="#D6CFCA"/>
<path d="M55.332 79.4049C55.0883 79.2776 54.8766 79.0969 54.7126 78.8763C54.5487 78.6557 54.4366 78.4009 54.385 78.1309C54.2182 77.1848 54.1492 76.2241 54.179 75.2639C54.1492 74.2984 54.2183 73.3324 54.385 72.3809C54.4362 72.1119 54.5482 71.8581 54.7123 71.6389C54.8764 71.4197 55.0883 71.2408 55.332 71.1159C56.1042 70.8147 56.9327 70.6854 57.76 70.7369C58.5814 70.6846 59.4043 70.814 60.17 71.1159C60.4149 71.2416 60.6277 71.4218 60.7921 71.6427C60.9564 71.8636 61.0679 72.1192 61.118 72.3899C61.2845 73.3391 61.3535 74.3027 61.324 75.2659C61.3538 76.2261 61.2848 77.1868 61.118 78.1329C61.0662 78.403 60.9541 78.6579 60.7899 78.8785C60.6257 79.0991 60.4138 79.2798 60.17 79.4069C59.4057 79.7146 58.5822 79.8472 57.76 79.7949C56.9319 79.8467 56.1027 79.7142 55.332 79.4069V79.4049ZM58.811 77.8819C58.9201 77.8024 59.0095 77.699 59.0725 77.5795C59.1354 77.4601 59.1701 77.3278 59.174 77.1929C59.2316 76.5516 59.2544 75.9077 59.242 75.2639C59.2544 74.6172 59.2317 73.9702 59.174 73.3259C59.1702 73.1932 59.1364 73.063 59.0751 72.9452C59.0138 72.8274 58.9266 72.7251 58.82 72.6459C58.4862 72.5034 58.1227 72.4443 57.761 72.4739C57.3964 72.4451 57.0301 72.5041 56.693 72.6459C56.5847 72.7241 56.4957 72.826 56.4328 72.9439C56.3699 73.0617 56.3347 73.1924 56.33 73.3259C56.2719 73.9702 56.2492 74.6172 56.262 75.2639C56.2493 75.9077 56.272 76.5516 56.33 77.1929C56.333 77.328 56.3673 77.4606 56.4303 77.5802C56.4933 77.6998 56.5832 77.8031 56.693 77.8819C57.0301 78.0237 57.3964 78.0827 57.761 78.0539C58.1195 78.0832 58.4796 78.0241 58.81 77.8819H58.811Z" fill="#D6CFCA"/>
<path d="M65.28 79.3681C64.8443 78.9913 64.5522 78.4756 64.453 77.9082C64.2546 76.9452 64.1681 75.9624 64.195 74.9795C64.1691 74.0034 64.2526 73.0274 64.444 72.0698C64.5418 71.4987 64.8263 70.9761 65.253 70.584C65.706 70.2596 66.2567 70.1007 66.813 70.134C67.2864 70.1188 67.7572 70.2097 68.191 70.4C68.5747 70.594 68.879 70.9153 69.052 71.3089H69.172V66.0034H71.239V79.6441H69.31L69.242 78.4862H69.122C68.9414 78.9207 68.6226 79.2836 68.215 79.5186C67.8073 79.7536 67.3335 79.8476 66.867 79.786C66.3072 79.8196 65.7515 79.6712 65.283 79.3631L65.28 79.3681ZM68.56 77.6623C68.7626 77.5357 68.9126 77.3399 68.982 77.1113C69.0599 76.8385 69.1091 76.5584 69.129 76.2754C69.1583 75.9421 69.1726 75.5048 69.172 74.9635C69.172 74.4636 69.163 74.0636 69.147 73.7636C69.1361 73.5056 69.0928 73.2499 69.018 73.0027C68.9678 72.7336 68.8209 72.4921 68.605 72.3238C68.3443 72.1728 68.0445 72.1032 67.744 72.1238C67.4043 72.0976 67.0634 72.1574 66.753 72.2978C66.6417 72.3868 66.5504 72.4982 66.4851 72.6249C66.4198 72.7515 66.3819 72.8905 66.374 73.0327C66.2936 73.6747 66.2602 74.3217 66.274 74.9685C66.2604 75.6217 66.2938 76.275 66.374 76.9233C66.3819 77.0656 66.4198 77.2046 66.4851 77.3312C66.5504 77.4578 66.6417 77.5693 66.753 77.6583C67.0634 77.7986 67.4043 77.8584 67.744 77.8322C68.0261 77.8477 68.3076 77.7913 68.562 77.6683L68.56 77.6623Z" fill="#D6CFCA"/>
<path d="M79.998 75.934H75.193C75.174 76.4156 75.2113 76.8979 75.304 77.371C75.3379 77.5009 75.4048 77.6199 75.4982 77.7165C75.5915 77.813 75.7083 77.8838 75.837 77.922C76.3182 78.0427 76.8145 78.0922 77.31 78.069C78.1159 78.0661 78.921 78.02 79.722 77.931V79.531C79.2912 79.626 78.8541 79.6895 78.414 79.721C77.875 79.766 77.351 79.789 76.848 79.789C75.9951 79.8439 75.1414 79.693 74.359 79.349C74.1045 79.2092 73.8824 79.0172 73.7073 78.7856C73.5322 78.554 73.4081 78.2879 73.343 78.005C73.1602 77.1073 73.082 76.1916 73.11 75.276C73.0807 74.3699 73.1589 73.4636 73.343 72.576C73.4066 72.2901 73.5271 72.0199 73.6974 71.7816C73.8677 71.5433 74.0842 71.3418 74.334 71.189C75.0661 70.829 75.8801 70.6686 76.694 70.724C77.4753 70.6639 78.2582 70.8185 78.958 71.171C79.1886 71.32 79.3852 71.5158 79.5351 71.7459C79.685 71.9759 79.7848 72.2348 79.828 72.506C79.9646 73.4203 80.0222 74.3447 80 75.269V75.924L79.998 75.934ZM75.698 72.593C75.5951 72.6529 75.5068 72.7351 75.4397 72.8336C75.3725 72.932 75.3282 73.0442 75.31 73.162C75.2313 73.6109 75.1942 74.0662 75.199 74.522H78.039C78.0536 74.0599 78.0164 73.5977 77.928 73.144C77.9075 73.0255 77.861 72.913 77.7919 72.8146C77.7227 72.7162 77.6326 72.6344 77.528 72.575C77.2509 72.4684 76.9545 72.4214 76.658 72.437C76.3296 72.4161 76.0006 72.4687 75.695 72.591L75.698 72.593Z" fill="#D6CFCA"/>
</svg>
